<svg id="visual" viewBox="0 0 960 300" width="960" height="300" xmlns="http://www.w3.org/2000/svg" xmlns:xlink="http://www.w3.org/1999/xlink" version="1.1"><path d="M0 194L20 191.7C40 189.3 80 184.7 120 180C160 175.3 200 170.7 240 173C280 175.3 320 184.7 360 183.7C400 182.7 440 171.3 480 170.8C520 170.3 560 180.7 600 187.5C640 194.3 680 197.7 720 191.2C760 184.7 800 168.3 840 160.8C880 153.3 920 154.7 940 155.3L960 156L960 301L940 301C920 301 880 301 840 301C800 301 760 301 720 301C680 301 640 301 600 301C560 301 520 301 480 301C440 301 400 301 360 301C320 301 280 301 240 301C200 301 160 301 120 301C80 301 40 301 20 301L0 301Z" fill="#7aff94"></path><path d="M0 202L20 206.2C40 210.3 80 218.7 120 218.7C160 218.7 200 210.3 240 201.7C280 193 320 184 360 183.3C400 182.7 440 190.3 480 194.7C520 199 560 200 600 203.5C640 207 680 213 720 212.5C760 212 800 205 840 204.2C880 203.3 920 208.7 940 211.3L960 214L960 301L940 301C920 301 880 301 840 301C800 301 760 301 720 301C680 301 640 301 600 301C560 301 520 301 480 301C440 301 400 301 360 301C320 301 280 301 240 301C200 301 160 301 120 301C80 301 40 301 20 301L0 301Z" fill="#30f6c1"></path><path d="M0 210L20 209C40 208 80 206 120 204.7C160 203.3 200 202.7 240 203C280 203.3 320 204.7 360 212C400 219.3 440 232.7 480 234C520 235.3 560 224.7 600 220.2C640 215.7 680 217.3 720 222.2C760 227 800 235 840 237.5C880 240 920 237 940 235.5L960 234L960 301L940 301C920 301 880 301 840 301C800 301 760 301 720 301C680 301 640 301 600 301C560 301 520 301 480 301C440 301 400 301 360 301C320 301 280 301 240 301C200 301 160 301 120 301C80 301 40 301 20 301L0 301Z" fill="#00e8e0"></path><path d="M0 246L20 246C40 246 80 246 120 245.8C160 245.7 200 245.3 240 246.8C280 248.3 320 251.7 360 253.3C400 255 440 255 480 251.7C520 248.3 560 241.7 600 239.7C640 237.7 680 240.3 720 239.5C760 238.7 800 234.3 840 235.5C880 236.7 920 243.3 940 246.7L960 250L960 301L940 301C920 301 880 301 840 301C800 301 760 301 720 301C680 301 640 301 600 301C560 301 520 301 480 301C440 301 400 301 360 301C320 301 280 301 240 301C200 301 160 301 120 301C80 301 40 301 20 301L0 301Z" fill="#13d7ee"></path><path d="M0 276L20 273C40 270 80 264 120 262.3C160 260.7 200 263.3 240 264.3C280 265.3 320 264.7 360 266.5C400 268.3 440 272.7 480 272.3C520 272 560 267 600 264.2C640 261.3 680 260.7 720 261.3C760 262 800 264 840 265C880 266 920 266 940 266L960 266L960 301L940 301C920 301 880 301 840 301C800 301 760 301 720 301C680 301 640 301 600 301C560 301 520 301 480 301C440 301 400 301 360 301C320 301 280 301 240 301C200 301 160 301 120 301C80 301 40 301 20 301L0 301Z" fill="#53c4ee"></path></svg>