<svg id="visual" viewBox="0 0 960 300" width="960" height="300" xmlns="http://www.w3.org/2000/svg" xmlns:xlink="http://www.w3.org/1999/xlink" version="1.1"><path d="M0 151L20 158.2C40 165.3 80 179.7 120 180.8C160 182 200 170 240 163.5C280 157 320 156 360 159.8C400 163.7 440 172.3 480 174.2C520 176 560 171 600 167.3C640 163.7 680 161.3 720 166.7C760 172 800 185 840 189.3C880 193.7 920 189.3 940 187.2L960 185L960 301L940 301C920 301 880 301 840 301C800 301 760 301 720 301C680 301 640 301 600 301C560 301 520 301 480 301C440 301 400 301 360 301C320 301 280 301 240 301C200 301 160 301 120 301C80 301 40 301 20 301L0 301Z" fill="#7aff94"></path><path d="M0 213L20 207.7C40 202.3 80 191.7 120 189.7C160 187.7 200 194.3 240 197.2C280 200 320 199 360 198.2C400 197.3 440 196.7 480 200.8C520 205 560 214 600 214.2C640 214.3 680 205.7 720 206.2C760 206.7 800 216.3 840 213.3C880 210.3 920 194.7 940 186.8L960 179L960 301L940 301C920 301 880 301 840 301C800 301 760 301 720 301C680 301 640 301 600 301C560 301 520 301 480 301C440 301 400 301 360 301C320 301 280 301 240 301C200 301 160 301 120 301C80 301 40 301 20 301L0 301Z" fill="#30f6c1"></path><path d="M0 208L20 207C40 206 80 204 120 206.2C160 208.3 200 214.7 240 221.7C280 228.7 320 236.3 360 238.7C400 241 440 238 480 231C520 224 560 213 600 213.7C640 214.3 680 226.7 720 233C760 239.3 800 239.7 840 235.3C880 231 920 222 940 217.5L960 213L960 301L940 301C920 301 880 301 840 301C800 301 760 301 720 301C680 301 640 301 600 301C560 301 520 301 480 301C440 301 400 301 360 301C320 301 280 301 240 301C200 301 160 301 120 301C80 301 40 301 20 301L0 301Z" fill="#00e8e0"></path><path d="M0 248L20 247.5C40 247 80 246 120 245.5C160 245 200 245 240 247.3C280 249.7 320 254.3 360 253.7C400 253 440 247 480 244C520 241 560 241 600 243.8C640 246.7 680 252.3 720 252.7C760 253 800 248 840 243C880 238 920 233 940 230.5L960 228L960 301L940 301C920 301 880 301 840 301C800 301 760 301 720 301C680 301 640 301 600 301C560 301 520 301 480 301C440 301 400 301 360 301C320 301 280 301 240 301C200 301 160 301 120 301C80 301 40 301 20 301L0 301Z" fill="#13d7ee"></path><path d="M0 279L20 279.7C40 280.3 80 281.7 120 278.7C160 275.7 200 268.3 240 264C280 259.7 320 258.3 360 260.5C400 262.7 440 268.3 480 269.7C520 271 560 268 600 269.7C640 271.3 680 277.7 720 279.8C760 282 800 280 840 275.3C880 270.7 920 263.3 940 259.7L960 256L960 301L940 301C920 301 880 301 840 301C800 301 760 301 720 301C680 301 640 301 600 301C560 301 520 301 480 301C440 301 400 301 360 301C320 301 280 301 240 301C200 301 160 301 120 301C80 301 40 301 20 301L0 301Z" fill="#53c4ee"></path></svg>